<svg id="Camada_1" data-name="Camada 1" xmlns="http://www.w3.org/2000/svg" xmlns:xlink="http://www.w3.org/1999/xlink" viewBox="0 0 600 600"><defs><style>.cls-1,.cls-10,.cls-11,.cls-12,.cls-14,.cls-4,.cls-5,.cls-7,.cls-8,.cls-9{fill:none;}.cls-2{clip-path:url(#clip-path);}.cls-3{fill:#00043b;}.cls-10,.cls-11,.cls-4,.cls-5,.cls-7,.cls-8,.cls-9{stroke:#00043b;}.cls-4,.cls-8,.cls-9{stroke-miterlimit:10;}.cls-11,.cls-14,.cls-5,.cls-9{stroke-linecap:round;}.cls-10,.cls-11,.cls-12,.cls-14,.cls-5,.cls-7{stroke-linejoin:round;}.cls-6{fill:#4b8bd1;}.cls-8{stroke-width:1.01px;}.cls-10{stroke-width:1.01px;}.cls-11{stroke-width:1px;}.cls-12,.cls-14{stroke:#66a3f2;}.cls-13{fill:#66a3f2;}</style><clipPath id="clip-path"><rect class="cls-1" width="600" height="600"/></clipPath></defs><title>Prancheta 1</title><g class="cls-2"><path class="cls-3" d="M202.69,63.93s7.75,3.88,12.92,3.88c7.1,0,9-5.81,6.45-9.69-1.93-2.58-5.06-2.87-8.39-3.87-6.46-1.94-18.72-7.75-28.41-5.81C172.35,51,167.83,65.87,169.12,74.26s4.52,16.15,4.52,20,0,8.39.64,9,3.88-2.58,5.81-5.81c1.49-2.48,3.23-5.17,2.59-7.1s-5.81-5.17-2.59-9.69c1.88-2.63,5.17-2.58,6.46,0A31.55,31.55,0,0,1,189.13,93c0,4.52-1.29,10.33,0,14.85S201.4,124,207.86,125.27s11,0,11.62-4.52-.64-11.62,0-12.26.08-1.75-1.29-1.3c-1,.33-2.91.33-2.91-.32,0-1.29.33-1.61,3.56-1.61s3.87-1.29,3.22-2.59-2.58-3.22-6.45-2.58-3.88,3.23-7.1,2.58S201.4,94.28,198.17,93s-5.81-2.58-5.81-7.75,3.88-8.39,5.81-10.33a21.15,21.15,0,0,0,3.88-5.17c.64-1.29.64-5.81.64-5.81"/><path class="cls-4" d="M217.87,66.52a79.19,79.19,0,0,1,1.29,8.39c0,1.94-.64,7.75,0,9.68s4.52,11.63,4.52,12.92-5.16,3.87-5.16,3.87-5.17,2.59-5.17,5.17,1.94,5.81-1.29,7.1-12.91,4.52-12.91,4.52a15.7,15.7,0,0,0-.65,4.52v5.17l-27.76-14.21s3.22-1.94,3.87-14.2-7.75-29.71,0-37.45,14.85-8.4,23.89-6.46S217.87,66.52,217.87,66.52Z"/><path class="cls-5" d="M149.25,293.1a90.86,90.86,0,0,0,.07,10.94c8.37,5.52,45.3,9.13,77.36,3.61,1.38-2.44.61-9.24.61-9.24S166.23,300.22,149.25,293.1Z"/><path class="cls-5" d="M158.29,307.24a29.38,29.38,0,0,1,.38-11.65"/><path class="cls-5" d="M170.63,309.24a29.65,29.65,0,0,1,.46-12.07"/><path class="cls-5" d="M184.26,310.23a29.92,29.92,0,0,1,.78-12.14"/><path class="cls-5" d="M199.07,298.52a29.19,29.19,0,0,1,.33,11.76"/><path class="cls-5" d="M214.77,298.6a29.71,29.71,0,0,1-1.69,10.84"/><path class="cls-6" d="M137.16,121.72c1.8-3.72,7.42-2.26,11.94-2.9s18.48-8.14,23.77-7.95,21.43,4.07,33.7,23.44,16.79,40.68,18.72,53.6,16.79,53.59,5.17,111.7c-29.7,4.52-71.67,1.94-83.3-4.52-4.52-13.56-4.52-45.84-4.52-45.84s-14.85-9-20.66-21.31,31-71.67,31.64-74.26,1.94-4.52-1.29-5.81-20-16.14-15.17-26.15"/><path class="cls-6" d="M223.36,189.2s7.1,10.33,29,11,48.43-2.58,54.24,2.59.65,24.53-1.94,25.82-31.64,5.82-76.19-2.58-5.16-36.8-5.16-36.8"/><path class="cls-3" d="M186.55,170.47S182.68,189.2,176.22,197a70.26,70.26,0,0,0,11-14.21Z"/><path class="cls-7" d="M186.55,170.47S182.68,189.2,176.22,197a70.26,70.26,0,0,0,11-14.21Z"/><path class="cls-3" d="M170.41,207.92s-7.75,7.1-7.75,9.69,5.17,5.81,14.21,5.81c-3.88-1.94-10.33-4.52-10.33-4.52s5.81-9,3.87-11"/><path class="cls-7" d="M170.41,207.92s-7.75,7.1-7.75,9.69,5.17,5.81,14.21,5.81c-3.88-1.94-10.33-4.52-10.33-4.52S172.35,209.86,170.41,207.92Z"/><path class="cls-3" d="M204.63,227.94s-1.29,25.83-7.75,29.05c5.81,2.59,6.46,1.3,6.46,1.3s6.46-16.15,1.29-30.35"/><path class="cls-7" d="M204.63,227.94s-1.29,25.83-7.75,29.05c5.81,2.59,6.46,1.3,6.46,1.3S209.8,242.14,204.63,227.94Z"/><path class="cls-3" d="M145,249.89a78.13,78.13,0,0,0,44.55,7.75v-1.29A91.38,91.38,0,0,1,145,249.89"/><path class="cls-7" d="M145,249.89a78.13,78.13,0,0,0,44.55,7.75v-1.29A91.38,91.38,0,0,1,145,249.89Z"/><path class="cls-3" d="M153.47,148a7.19,7.19,0,0,0-1.25-.72,12,12,0,0,1,2.91-2.15,29.78,29.78,0,0,0,3.13-2.26c.82-.63,1.77-1.36,2.77-2.1a52.66,52.66,0,0,0-3.44,4.14c-.49.64-.87,1.14-1.09,1.36a9.69,9.69,0,0,1-2.65,2l-.38-.25"/><path class="cls-3" d="M157.73,143.87l-.54.7c-.45.59-.85,1.1-1.05,1.3a9.59,9.59,0,0,1-2.25,1.76l-.14-.09c-.22-.14-.45-.3-.69-.44a14.16,14.16,0,0,1,2.3-1.56,20.68,20.68,0,0,0,2.37-1.67m11.67-8.3c-3.55,0-12.81,8.24-14.49,9.07-1,.51-4.22,2.68-3,3a11.17,11.17,0,0,1,1.93,1.1,8.81,8.81,0,0,0,3-2.17c1.29-1.29,6.46-9.68,12.91-11a2,2,0,0,0-.36,0"/><path class="cls-3" d="M307.45,204s1.85,15-5.31,25.07a11.26,11.26,0,0,0,7-3.14c.65-1.64,3.83-17.79-1.69-21.93"/><path class="cls-4" d="M307.45,204s1.85,15-5.31,25.07a11.26,11.26,0,0,0,7-3.14C309.79,224.24,313,208.09,307.45,204Z"/><path class="cls-4" d="M308.94,206.81s7.64-6.37,16.16-7,8.59,2.39,10.9,3.5,7.88,3.1,4,5.33-11.46-1-13.77-2.94"/><path class="cls-4" d="M306.39,226.07a33.6,33.6,0,0,1,9,1c4,1.2,9.31,3,13,2.95s12-5.34,13-5.82c.44-.21,3.08-1.82,5.95-3.68h0c1.41-.92,2.88-1.9,4.16-2.81,0,0,0,0,0,0"/><path class="cls-4" d="M351.32,212c.06-1.36.74-3.14,2.62-3a3.07,3.07,0,0,1,1.16.31c1.9.94,1.38,3.54.11,5.26a20.59,20.59,0,0,1-3.7,3.11v-.44l0-.88"/><polyline class="cls-5" points="334.53 202.21 355.43 187.79 367.45 200.44 355.08 209.35"/><polyline class="cls-5" points="327.88 206.8 320.65 211.78 332.5 225.6 341.83 218.88"/><path class="cls-5" d="M346,214.93c.3-1.44,1-3,2.37-3.5a3.16,3.16,0,0,1,2.64.2c.75.46,1.14,4.06-.19,6.57"/><polyline class="cls-5" points="149.5 304.5 149.29 532.45 179.73 531.82 207.46 313.48"/><polygon class="cls-3" points="144.88 528.5 146.84 540.5 151.56 540.5 177.39 540.5 181.53 528.5 144.88 528.5"/><polygon class="cls-7" points="144.88 528.5 146.84 540.5 151.56 540.5 177.39 540.5 181.53 528.5 144.88 528.5"/><path class="cls-4" d="M226.67,307.65s26.12,109.53,29.09,127.57-9.34,94.9-9.34,94.9l-34.6,1.48s3-77.06,2.33-80.45c-.5-2.67-11.06-49.13-15.59-69"/><path class="cls-3" d="M208.77,528.92l1.38,9.77s33.44.15,35.46-.43c1.43-1.4,3.29-9.76,3.29-9.76Z"/><path class="cls-7" d="M208.77,528.92l1.38,9.77s33.44.15,35.46-.43c1.43-1.4,3.29-9.76,3.29-9.76Z"/><path class="cls-4" d="M151.71,539.72a130.05,130.05,0,0,1-1.35,14.41"/><path class="cls-4" d="M173.53,539.72s-1.12,14.89-.56,17.36"/><path class="cls-4" d="M218.85,537.18a141.07,141.07,0,0,1-.54,14.46"/><path class="cls-4" d="M239.28,536.15s-.3,14.92.35,17.36"/><path class="cls-3" d="M198.72,571.55c-5.59,0-12.49-.57-18.05-2.83a46.91,46.91,0,0,1-17.88-13.55c-9.55.86-11.86-3-12.91-2.15-4.53,3.66-2.63,23.16-2.63,23.16s4.47,4.22,25.09,5.34c22.2,1.2,36.43,1.84,36.43-6.93a4.61,4.61,0,0,0-1.57-3.46c-1.8.18-4.87.42-8.48.42"/><path class="cls-3" d="M181.4,566.93c7.4,3,17.63,2.84,23.21,2.46-4.38-2.2-11.37-3.4-16.83-5.82-4.63-2.06-13.62-9.41-13.62-9.41s.91-.55-9.07.74a45.46,45.46,0,0,0,16.31,12"/><path class="cls-3" d="M264.16,565.62c-5.34,0-11.92-.5-17.22-2.46a44.44,44.44,0,0,1-17.06-11.75c-9.11.74-11.31-2.6-12.31-1.87-4.33,3.18-2.51,20.09-2.51,20.09s4.26,3.66,23.93,4.63c21.18,1,34.76,1.6,34.76-6a3.87,3.87,0,0,0-1.5-3c-1.72.16-4.64.37-8.09.37"/><path class="cls-3" d="M247.64,561.6c7.06,2.61,16.81,2.47,22.13,2.14-4.17-1.91-10.84-3-16-5-4.41-1.78-13-8.16-13-8.16s.86-.48-8.65.64a43,43,0,0,0,15.56,10.43"/><path class="cls-5" d="M341.33,220.18s.18-.55.5-1.29c.63-1.44,1.83-3.59,3.48-3.88.22,0,.45-.06.67-.08,2-.16,4.3,2.6,1.31,5.62l-.48.31"/><rect class="cls-7" x="303.5" y="316.5" width="207" height="16"/><rect class="cls-3" x="493.5" y="332.5" width="16" height="242"/><rect class="cls-8" x="493.5" y="332.5" width="16" height="242"/><line class="cls-4" x1="493.34" y1="472.23" x2="321.51" y2="332.42"/><line class="cls-9" x1="345.5" y1="309.5" x2="410.5" y2="309.5"/><rect class="cls-10" x="330.5" y="300.5" width="105" height="16"/><rect class="cls-5" x="331.5" y="287.5" width="96" height="12.73"/><polygon class="cls-5" points="460.81 260.5 468.06 316.5 490.14 316.5 495.21 260.5 460.81 260.5"/><polygon class="cls-5" points="459.04 254.4 456.1 260.5 499.19 260.51 496.33 253.5 459.32 253.82 459.04 254.4"/><polygon class="cls-5" points="466.62 250.5 465.27 253.5 491.04 253.5 489.91 250.5 466.62 250.5"/><line class="cls-9" x1="489.19" y1="238.89" x2="483.02" y2="250.36"/><path class="cls-9" d="M325,175.17a.62.62,0,0,1-1.21.13c-2.12-6.11-7.45-19.59-15.57-28-8.46-8.72-34.29-33.92-44.16-54.43S258,41.18,280.6,31.31s45.32,2.34,55.08,28.13c9.95,26.28,1.7,65.49-4.44,87.46C326.82,162.72,325.41,171.1,325,175.17Z"/><line class="cls-5" x1="281.55" y1="68.09" x2="286.17" y2="71.59"/><line class="cls-5" x1="297.95" y1="60.45" x2="299.62" y2="66.66"/><line class="cls-5" x1="314.67" y1="60.45" x2="312.28" y2="66.66"/><path class="cls-5" d="M314.29,111.69l-8.12,1.14a1.14,1.14,0,0,1-1.28-1,1.13,1.13,0,0,1,1-1.28l8.12-1.14a1.14,1.14,0,0,1,.32,2.25Z"/><path class="cls-5" d="M313,114.49l-4.9.68a1.19,1.19,0,0,1-1.34-1v-.1a1.18,1.18,0,0,1,1-1.33l4.91-.69a1.18,1.18,0,0,1,1.33,1l0,.09A1.19,1.19,0,0,1,313,114.49Z"/><path class="cls-5" d="M312.14,117l-2.18.3a1.06,1.06,0,0,1-.29-2.09l2.18-.31a1.06,1.06,0,0,1,.29,2.1Z"/><path class="cls-5" d="M306.5,110.49c-.19-.83-.55-2.24-.8-3a9.88,9.88,0,0,0-3.18-4.36,25.27,25.27,0,0,1-6.59-7.69c-1.43-3-1.22-9,.43-11.51s4.3-5,9.34-5.74A12.24,12.24,0,0,1,316.85,83c1.69,2.44,2.86,8.33,2.12,11.2a27.36,27.36,0,0,1-3,6.82,21,21,0,0,0-2.33,4.06,20.59,20.59,0,0,0-.23,4.45"/><line class="cls-5" x1="304.64" y1="95.31" x2="309.03" y2="109.94"/><line class="cls-5" x1="308.83" y1="94.31" x2="310.84" y2="109.7"/><path class="cls-5" d="M301.29,93.48s1-2.33,2.58-1.88A1.93,1.93,0,0,1,305.49,94a.8.8,0,0,1-1.57.16c-.19-.77.35-3.64,2.36-3.93a3.15,3.15,0,0,1,3.59,2.44c.05,1.12-1.68,2.21-1.86.93s1.51-4,3.37-4.43"/><path class="cls-5" d="M344.76,109.48s1.11-15.76.79-23.72-6.17-38.21-.69-51.42S364,15.87,376.12,18.41s25.77,15,19.72,36.61C392.51,67,365.78,83.37,358.13,90.86A74.79,74.79,0,0,0,344.76,109.48Z"/><circle class="cls-5" cx="367" cy="49" r="11.5"/><path class="cls-5" d="M362.27,42.46A4.93,4.93,0,0,0,359.41,45a8.06,8.06,0,0,0-.44,4.38"/><path class="cls-5" d="M359.65,52.29a4,4,0,0,0,1.43,2"/><path class="cls-5" d="M363.35,59.93l-7.44,15.94a1.38,1.38,0,0,1-1.79.66,1.31,1.31,0,0,1-.67-1.75l7.42-15.9"/><path class="cls-5" d="M396,86.4c-14.49-2.87-31.53,6.84-44.1,29.74s-17.52,62-17.52,62c5.91-4.25,14.27-8.71,20.22-10.25s14.52-2.38,28.29-6.37c16.29-4.72,27-15.39,31.41-32C419.28,111.16,410.52,89.26,396,86.4Z"/><polyline class="cls-5" points="381.83 118.48 361.59 133.2 356.28 133.95 359.99 144.56 363.28 142.23 368.06 141.68 374.67 140.91 389.32 139.22"/><path class="cls-5" d="M374.67,140.91a10.78,10.78,0,0,1-.09,3.39c-.37.74-5.62,1.11-6.31.64-.41-.29-.34-1.95-.21-3.26"/><polygon class="cls-5" points="389.32 139.22 382.18 119.44 381.83 118.48 380.82 115.69 384.96 113.61 394.83 139.01 390.06 141.25 389.32 139.22"/><line class="cls-5" x1="392.52" y1="114.9" x2="401.2" y2="107.33"/><line class="cls-5" x1="399.37" y1="119.75" x2="407.17" y2="118.48"/><line class="cls-5" x1="400.5" y1="129.5" x2="405.5" y2="129.5"/><polyline class="cls-5" points="61.73 94.17 47.72 109.67 54.73 138.11 80.63 131.09 86.15 110.3 67.86 109.88 64.71 119.22"/><circle class="cls-11" cx="81.5" cy="372.5" r="10"/><polygon class="cls-12" points="54.68 523.96 79.19 504.22 77.76 531.6 54.68 523.96"/><path class="cls-13" d="M372,468a9,9,0,1,1-9-9,9,9,0,0,1,9,9"/><polygon class="cls-7" points="552.28 520.76 549.14 558.68 531.83 551.34 552.28 520.76"/><polygon class="cls-13" points="484.71 121.43 460.19 163.35 476.75 170.03 484.71 121.43"/><polygon class="cls-14" points="484.71 121.43 460.19 163.35 476.75 170.03 484.71 121.43"/><path class="cls-3" d="M552,63.5a9.5,9.5,0,1,1-9.5-9.5,9.5,9.5,0,0,1,9.5,9.5"/></g></svg>